<svg id="Layer_1" data-name="Layer 1" xmlns="http://www.w3.org/2000/svg" viewBox="0 0 483.71 483.71"><defs><style>.cls-1{fill:#ffce07;}.cls-2{fill:#f9c1c8;}.cls-3{fill:#231f20;}.cls-4{fill:#3b9b46;}.cls-5{fill:#66bd5a;}.cls-6{fill:#f37a7b;}</style></defs><circle class="cls-1" cx="241.86" cy="241.86" r="241.86"/><path class="cls-2" d="M221.88,219.79c15.43-15.43,40.68-24.33,76.31-17.52s59.72,50.82,57.63,82.78S317.57,388.78,243.18,388.78s-110.94-59-116.31-77c-5.27-17.66-12.57-81.21,43-95.35s68.11,21,68.11,21Z"/><path class="cls-3" d="M355.9,278.52a7.17,7.17,0,0,1-2.39-6.4,8.48,8.48,0,0,1,.2-.95,22.4,22.4,0,0,0,.77-4.25c-.12-.69-.28-1.4-.43-2.09s-.28-1.22-.43-1.82c-2.57-.63-4.82-2.26-5.34-5.15-.48-2.68-.83-5.33-1.11-8a7.28,7.28,0,0,1-1-6.81q-1.27-2.52-2.69-5a26.93,26.93,0,0,1-2.74.64c-.74.13-1.48.22-2.22.29,8.77,14.46,13.61,31.35,12.67,45.71-1.83,27.87-32.6,92.85-98,99-1.67.15-3.34.27-5.05.34s-3.31.12-5,.12a5.52,5.52,0,0,1-.57,0c-2,0-4,0-5.88-.14a118.23,118.23,0,0,1-72.39-28.4,4.58,4.58,0,0,1,.29,6c1.63,1.31,3.33,2.6,5.08,3.85,5.63,3.54,11.27,7.06,17,10.31h0a125,125,0,0,0,56.24,13h.15c1.42,0,2.8,0,4.19-.08l.41,0c1.34-.18,2.67-.38,4-.61s2.84-.49,4.27-.8a141,141,0,0,0,16.5-4.5c10.35-3.46,21-7.43,30.74-12.6a118.22,118.22,0,0,0,20.44-18,43.67,43.67,0,0,1,12.39-15.94s0,0,0,0C348.51,317.57,355,298,355.82,285.05A61.52,61.52,0,0,0,355.9,278.52ZM360,272a87.71,87.71,0,0,0-2.1-11,101.58,101.58,0,0,0-14.32-31.35q-1.41-2.06-2.92-4-.83-1.11-1.71-2.19l-.95-1.15-.22-.27q-1.71-2-3.52-3.92c-8.13-8.54-17.79-15.22-28.55-18.68-1.2-.4-2.43-.76-3.66-1.06-1-.25-2-.47-3-.65-1.58-.31-3.14-.57-4.69-.8A122.48,122.48,0,0,0,280,195.48c-3.77-.15-7.47-.12-11.05.08A92.9,92.9,0,0,0,252.35,198a74.43,74.43,0,0,0-22.79,9.67c-1.61,1-3.2,2.15-4.71,3.32l-.69.55c-1.08.87-2.12,1.74-3.14,2.67l-.68-.33a52.68,52.68,0,0,0-10.65-3.71c-10.38-2.44-23.8-2.63-41,1.76-18.06,4.58-31.51,14.51-40,29.45-14.32,25.31-10.37,58-6.26,71.69,2,6.56,9.27,21.28,22.73,36.37.69.78,1.4,1.56,2.16,2.35a132.88,132.88,0,0,0,12.18,11.57h0c19.47,16.33,47,30,83.64,30,1.94,0,3.85,0,5.74-.14l1.82-.1c1.43-.08,2.85-.2,4.25-.34s2.78-.31,4.15-.51c33.94-4.72,57-23.95,71-40.41,19.41-22.9,29.2-49.93,30.29-66.53A71.25,71.25,0,0,0,360,272ZM253.22,383.7c-1.67.15-3.34.27-5.05.34s-3.31.12-5,.12a5.52,5.52,0,0,1-.57,0c-2,0-4,0-5.88-.14a118.23,118.23,0,0,1-72.39-28.4c-.25-.22-.49-.44-.74-.64l-.07-.06c-19.73-17.13-29.95-36.82-32.23-44.46-3-10-7.82-41,5.45-64.48,7.18-12.68,18.7-21.11,34.22-25.07a95.05,95.05,0,0,1,23.37-3.22c10.81,0,18.83,2.48,24.7,5.76a4.24,4.24,0,0,0,1.09.63c10,6,13.22,14.24,13.46,14.87a4.62,4.62,0,0,0,8.7-3.11c-.08-.19-3.28-8.71-12.73-16.19l-.35-.28a63.11,63.11,0,0,1,26.73-12.82c9.22-2.09,20.3-2.74,33.55-1,2.52.32,5.14.74,7.83,1.26l.19,0c.38.07.75.14,1.14.24A49.67,49.67,0,0,1,313.36,213a65,65,0,0,1,10.42,7.79c1.35,1.25,2.69,2.55,4,3.92a84.12,84.12,0,0,1,6.2,7.45c1.63,2.2,3.17,4.48,4.6,6.83,8.77,14.46,13.61,31.35,12.67,45.71C349.39,312.61,318.62,377.59,253.22,383.7Z"/><path class="cls-4" d="M296.88,151.94c-19.2-5.67-45.9-6.47-62.58,6.21a7.64,7.64,0,0,0-.85.74,7.94,7.94,0,0,0-.95.61c-4.06,3-8.92,5-12.16,9a15.85,15.85,0,0,0-3.33,7.39c-.26,1.35.18,4.26,0,6.27-.64,1.09-1.27,2.2-1.86,3.37-3.88,7.66,5.59,15.57,12.08,9.32a14.65,14.65,0,0,0,4.06-6.65,25.83,25.83,0,0,1,8.57-8.91c5.27-3.1,11.83-3.46,17.75-4.33,6.29-.93,12.61-1.6,18.89-2.58a37.37,37.37,0,0,0,8.71-2.27c1.83-.76,5.63-3.83,7.63-3.35C302.42,169.08,306.41,154.75,296.88,151.94Z"/><path class="cls-5" d="M225.17,216.73s21.54-11.45,42.5-20.61,35.3-17.69,38.41-41.26c-9.07,2.36-14.83,5-39.2,11.92S222.08,184.43,225.17,216.73Z"/><path class="cls-3" d="M225.17,221.35a4.62,4.62,0,0,1-4.6-4.18c-3.44-36,20.84-47.94,45.05-54.83,13.6-3.88,21.45-6.42,27.17-8.28,4.66-1.51,8-2.6,12.13-3.67a4.62,4.62,0,0,1,5.74,5.07c-3.49,26.39-20.69,35.94-41.14,44.89s-42,20.34-42.19,20.46A4.61,4.61,0,0,1,225.17,221.35Zm74.91-59.94-4.44,1.43c-5.79,1.88-13.72,4.46-27.49,8.38-23.37,6.66-38.2,15.62-38.67,38.07,8-4.12,22.38-11.3,36.34-17.4C285.45,183.3,296,176.29,300.08,161.41Z"/><path class="cls-3" d="M310.54,153.67c-.59-2.24-2.8-5-14.8-9.9-14.57-6-37.13-3.13-61.89,7.78-13.33,5.87-19.22,14.07-21.65,21.38-2.84-.17-7.84.15-11.21,3.92a3.85,3.85,0,0,0-.23,4.85c11.53,15.62,8.62,33.21,8.57,33.48a3.85,3.85,0,0,0,2.35,4.25l5.81,2.35a3.77,3.77,0,0,0,1.44.28,4,4,0,0,0,1.69-.38,3.85,3.85,0,0,0,2-2.4c4.4-15.34.29-30.06-2.88-38.05.33-5.91,3.47-14.91,17.82-21.23,22.15-9.76,42.58-12.63,54.68-7.68,7.19,2.94,9.44,4.62,10,5.06a4.62,4.62,0,0,0,8.33-3.71Z"/><path class="cls-2" d="M221.91,219.79c15.43-15.43,40.69-24.33,76.31-17.52s59.73,50.82,57.63,82.78S317.6,388.78,243.21,388.78s-110.94-59-116.31-77c-5.27-17.66-12.57-81.21,43-95.35s68.11,21,68.11,21Z"/><path class="cls-3" d="M355.93,278.52a7.17,7.17,0,0,1-2.39-6.4,8.48,8.48,0,0,1,.2-.95,22.4,22.4,0,0,0,.77-4.25c-.12-.69-.27-1.4-.43-2.09s-.28-1.22-.43-1.82c-2.57-.63-4.82-2.26-5.34-5.15-.48-2.68-.83-5.33-1.11-8a7.28,7.28,0,0,1-1-6.81c-.84-1.68-1.75-3.34-2.69-5a26.33,26.33,0,0,1-2.74.64c-.74.13-1.48.22-2.22.29,8.78,14.46,13.61,31.35,12.67,45.71-1.83,27.87-32.6,92.85-98,99-1.66.15-3.34.27-5.05.34s-3.31.12-5,.12a5.52,5.52,0,0,1-.57,0c-2,0-3.95,0-5.87-.14a118.24,118.24,0,0,1-72.4-28.4,4.59,4.59,0,0,1,.3,6c1.63,1.31,3.32,2.6,5.07,3.85,5.64,3.54,11.27,7.06,17.06,10.31h0a124.91,124.91,0,0,0,56.23,13h.15c1.42,0,2.81,0,4.19-.08l.42,0c1.33-.18,2.66-.38,4-.61s2.83-.49,4.26-.8a141,141,0,0,0,16.5-4.5c10.35-3.46,21-7.43,30.75-12.6a118.52,118.52,0,0,0,20.43-18,43.67,43.67,0,0,1,12.39-15.94s0,0,0,0C348.54,317.57,355,298,355.85,285.05A61.52,61.52,0,0,0,355.93,278.52ZM360,272a87.76,87.76,0,0,0-2.11-11,101.55,101.55,0,0,0-14.31-31.35c-.94-1.37-1.91-2.71-2.93-4q-.82-1.11-1.71-2.19c-.3-.38-.63-.77-.95-1.15l-.22-.27c-1.14-1.35-2.3-2.66-3.52-3.92-8.13-8.54-17.79-15.22-28.55-18.68-1.2-.4-2.43-.76-3.66-1.06-1-.25-2-.47-3-.65-1.58-.31-3.14-.57-4.69-.8A122.27,122.27,0,0,0,280,195.48c-3.77-.15-7.46-.12-11.05.08A92.65,92.65,0,0,0,252.39,198a74.38,74.38,0,0,0-22.8,9.67c-1.61,1-3.2,2.15-4.7,3.32l-.7.55c-1.07.87-2.12,1.74-3.14,2.67l-.67-.33a53.12,53.12,0,0,0-10.65-3.71c-10.39-2.44-23.81-2.63-41,1.76-18,4.58-31.5,14.51-40,29.45-14.33,25.31-10.38,58-6.27,71.69,2,6.56,9.27,21.28,22.73,36.37.7.78,1.4,1.56,2.16,2.35a131.75,131.75,0,0,0,12.19,11.57h0c19.47,16.33,47,30,83.64,30,1.94,0,3.85,0,5.74-.14l1.82-.1c1.43-.08,2.85-.2,4.25-.34s2.78-.31,4.15-.51c33.94-4.72,57-23.95,71-40.41,19.4-22.9,29.19-49.93,30.28-66.53A71.23,71.23,0,0,0,360,272ZM253.25,383.7c-1.66.15-3.34.27-5.05.34s-3.31.12-5,.12a5.52,5.52,0,0,1-.57,0c-2,0-3.95,0-5.87-.14a118.24,118.24,0,0,1-72.4-28.4c-.24-.22-.49-.44-.74-.64l-.07-.06c-19.73-17.13-29.95-36.82-32.23-44.46-3-10-7.82-41,5.45-64.48,7.19-12.68,18.7-21.11,34.23-25.07a94.92,94.92,0,0,1,23.36-3.22c10.82,0,18.83,2.48,24.7,5.76a4.61,4.61,0,0,0,1.09.63c10,6,13.22,14.24,13.47,14.87a4.61,4.61,0,0,0,8.69-3.11c-.08-.19-3.28-8.71-12.73-16.19-.1-.09-.23-.19-.35-.28A63.17,63.17,0,0,1,256,206.53c9.22-2.09,20.3-2.74,33.55-1q3.8.48,7.84,1.26l.18,0c.38.07.75.14,1.14.24A49.67,49.67,0,0,1,313.39,213a64.55,64.55,0,0,1,10.42,7.79c1.35,1.25,2.69,2.55,4,3.92a84.12,84.12,0,0,1,6.2,7.45c1.63,2.2,3.17,4.48,4.6,6.83,8.78,14.46,13.61,31.35,12.67,45.71C349.42,312.61,318.65,377.59,253.25,383.7Z"/><path class="cls-3" d="M279.58,306.14a2.49,2.49,0,0,1-2.47-2.11c-.05-.36-1.28-8.75,4.1-15,3.67-4.28,9.38-6.45,17-6.45,23.45,0,25.52,16.73,25.54,16.9a2.5,2.5,0,0,1-5,.55c-.07-.55-1.79-12.45-20.57-12.45-6,0-10.47,1.57-13.15,4.67-3.89,4.51-3,11-3,11a2.5,2.5,0,0,1-2.1,2.84A2.31,2.31,0,0,1,279.58,306.14Z"/><path class="cls-3" d="M166.41,315.44a2.5,2.5,0,0,1-2.47-2.11c-.05-.36-1.28-8.75,4.1-15,3.67-4.28,9.38-6.45,17-6.45,23.46,0,25.52,16.73,25.54,16.9a2.5,2.5,0,0,1-5,.55c-.07-.55-1.78-12.45-20.57-12.45-6,0-10.47,1.57-13.15,4.67-3.89,4.51-3,11-3,11.05a2.5,2.5,0,0,1-2.09,2.84Z"/><path class="cls-6" d="M231.81,345.64l33.71-4.59s1.52,13.7-11.79,15.51S232.87,353.39,231.81,345.64Z"/><path class="cls-3" d="M248.53,359.43c-12.7,0-18.3-6.9-19.19-13.46a2.48,2.48,0,0,1,2.14-2.81l33.7-4.59a2.55,2.55,0,0,1,1.88.51,2.46,2.46,0,0,1,.94,1.69c.62,5.58-1.49,16.57-13.94,18.27A42.48,42.48,0,0,1,248.53,359.43Zm-13.59-11.7c2.19,5.23,9,7.64,18.45,6.35,7.61-1,9.31-6.74,9.63-10.17Z"/><path class="cls-3" d="M84.65,288.07a5,5,0,0,1-4.87-3.89c-.67-3-15.92-73.07,24.6-123.79,26.26-32.86,69.65-49.52,129-49.52,63.61,0,110.76,17,140.14,50.52,39,44.48,32,101.27,31.67,103.67a5,5,0,0,1-9.92-1.31c.07-.54,6.66-54.85-29.35-95.86-27.4-31.2-72-47-132.54-47-56.1,0-96.85,15.38-121.12,45.71C74.7,213.49,89.38,281.29,89.54,282a5,5,0,0,1-3.78,6A5.24,5.24,0,0,1,84.65,288.07Z"/><path class="cls-3" d="M116.24,243.16c-8-11.11-24.7-14.56-33.38-2.19a23.84,23.84,0,0,0-4.11,11.88,22.08,22.08,0,0,0-1.88,3.73c-5.25,13.64-.78,33,2.5,46.77,3,12.68,13.76,25.68,28.25,20.21,13.41-5.06,16.79-22.4,17.82-34.89C126.68,273.59,125.35,255.85,116.24,243.16Z"/><path class="cls-3" d="M399.66,306.31c-8,11.1-24.7,14.56-33.38,2.19a24,24,0,0,1-4.11-11.88,22.46,22.46,0,0,1-1.88-3.73c-5.25-13.64-.77-33,2.5-46.77,3-12.68,13.76-25.69,28.25-20.22,13.41,5.07,16.79,22.41,17.82,34.9C410.1,275.88,408.77,293.62,399.66,306.31Z"/><path class="cls-3" d="M167.35,364.07c-20.42,0-37.68-5.4-51.48-16.15C88.59,326.68,85.09,292.54,85,291.09a5,5,0,0,1,10-.94c0,.5,3.39,31.48,27.18,49.94,16,12.39,37.6,16.57,64.32,12.44a5,5,0,0,1,1.53,9.88A134.93,134.93,0,0,1,167.35,364.07Z"/><rect class="cls-3" x="141.95" y="341.05" width="66.11" height="37.64" rx="12.23"/><path class="cls-6" d="M186.41,325.11a89.75,89.75,0,0,0-11.82-.31,6.26,6.26,0,1,0,0,12.51,91.51,91.51,0,0,1,11.82.31c3.37.31,6.25-3.09,6.25-6.25C192.66,327.72,189.78,325.42,186.41,325.11Z"/><path class="cls-6" d="M314.54,316.78H301.76c-8.05,0-8.07,12.52,0,12.52h12.78C322.59,329.3,322.61,316.78,314.54,316.78Z"/></svg>