<svg id="Layer_1" data-name="Layer 1" xmlns="http://www.w3.org/2000/svg" viewBox="0 0 361.89 361.9"><defs><style>.cls-1{fill:#c4e0f5;}.cls-2{fill:#fff7cb;}.cls-3{fill:#fff;}.cls-4{fill:#231f20;}.cls-5{fill:#f9c1c8;}.cls-6{fill:#3b9b46;}.cls-7{fill:#66bd5a;}</style></defs><path class="cls-1" d="M250.41,509.3A96.79,96.79,0,0,1,253,534a3,3,0,0,1-3,2.84h-.17a3,3,0,0,1-2.83-3.15,92.56,92.56,0,0,0-2.42-23,3,3,0,0,1,5.85-1.35Z" transform="translate(-76.3 -233.05)"/><path class="cls-1" d="M438.19,414A181,181,0,0,1,295.91,590.81h-.05l-.39.08-.13,0-.28,0a3,3,0,0,1-2.8-2,2.48,2.48,0,0,1-.18-.77c-.28-3-6.63-74.32,3.41-92.29a115.59,115.59,0,0,1,13.24-18.68c4.9-5.93,9.53-11.53,14.29-21.34a3.24,3.24,0,0,1,.28-.47c5.09-6.89,29.53-52.7,29.78-53.16l.12-.21c1.91-3,6.39-12.26,2.14-15.75-3.27-2.67-7.23.25-12.56,5.84l0,.05L310.4,442a3,3,0,0,1-2.52,1.36,3,3,0,0,1-1.63-.48,3,3,0,0,1-.88-4.15l32.45-50,.07-.12,3.4-5.23a3.37,3.37,0,0,1,.34-.43c1.95-2.07,6.9-8.58,6.37-13.59a6.4,6.4,0,0,0-3-4.7c-4.89-3.4-9.15-2.22-12-.44a2.78,2.78,0,0,1-.62.41h0a15.21,15.21,0,0,0-3.17,3l-.26.3L323,373.82a46.49,46.49,0,0,1,.29,8.7c-.71,10.79-7.07,28.35-19.68,43.23-9.07,10.7-24.08,23.19-46.13,26.26a21.38,21.38,0,0,1,1.85,4.64,2.51,2.51,0,0,1-1.87,3,2.76,2.76,0,0,1-.57.06,2.5,2.5,0,0,1-2.43-1.92,16.5,16.5,0,0,0-1.42-3.5l-2.2-1.66c-1.23.06-2.47.09-3.73.09-23.82,0-41.7-8.89-54.35-19.5h0c-6.61-.38-17.64-6.36-19.21-7.22-4.52-2.25-17.57-7.5-24.33-5.22a5.15,5.15,0,0,0-3.23,2.7,6.3,6.3,0,0,0-.31,5.72c2.08,4.56,10.25,9.11,21.86,12.18,11.18,2.95,19.41,17.63,22.93,23.9.48.85,1,1.8,1.23,2.15l0,.05a39.54,39.54,0,0,0,5.28,4.89,2.72,2.72,0,0,1,.72.22,31.43,31.43,0,0,1,8.07,5.07A65.86,65.86,0,0,0,228.18,483a3,3,0,0,1-.23,6h-.24a80.21,80.21,0,0,1-14.55-2.4,105.75,105.75,0,0,1,7.31,15.44c5.82,14.54-5.33,76.56-7.06,85.92,0,.19-.07.36-.1.51a3,3,0,0,1-.37,1q-2.81-.69-5.58-1.49A181,181,0,0,1,76.3,414c0-99.93,81-180.95,180.94-180.95A181,181,0,0,1,438.19,414Z" transform="translate(-76.3 -233.05)"/><path class="cls-2" d="M355.34,386.31c-3.27-2.67-7.23.25-12.56,5.84l0,.05L310.4,442a3,3,0,0,1-2.52,1.36,3,3,0,0,1-1.63-.48,3,3,0,0,1-.88-4.15l32.45-50,.07-.12,3.4-5.23a3.37,3.37,0,0,1,.34-.43c1.95-2.07,6.9-8.58,6.37-13.59a6.4,6.4,0,0,0-3-4.7c-4.89-3.4-9.15-2.22-12-.44a2.78,2.78,0,0,1-.62.41h0a15.21,15.21,0,0,0-3.17,3l-.26.3L323,373.82a46.49,46.49,0,0,1,.29,8.7c-.71,10.79-7.07,28.35-19.68,43.23-9.07,10.7-24.08,23.19-46.13,26.26a21.38,21.38,0,0,1,1.85,4.64,2.51,2.51,0,0,1-1.87,3,2.76,2.76,0,0,1-.57.06,2.5,2.5,0,0,1-2.43-1.92,16.5,16.5,0,0,0-1.42-3.5l-2.2-1.66c-1.23.06-2.47.09-3.73.09-23.82,0-41.7-8.89-54.35-19.5h0c-6.61-.38-17.64-6.36-19.21-7.22-4.52-2.25-17.57-7.5-24.33-5.22a5.15,5.15,0,0,0-3.23,2.7,6.3,6.3,0,0,0-.31,5.72c2.08,4.56,10.25,9.11,21.86,12.18,11.18,2.95,19.41,17.63,22.93,23.9.48.85,1,1.8,1.23,2.15l0,.05a39.54,39.54,0,0,0,5.28,4.89,2.72,2.72,0,0,1,.72.22,31.43,31.43,0,0,1,8.07,5.07A65.86,65.86,0,0,0,228.18,483a3,3,0,0,1-.23,6h-.24a80.21,80.21,0,0,1-14.55-2.4,105.75,105.75,0,0,1,7.31,15.44c5.82,14.54-5.33,76.56-7.06,85.92,0,.19-.07.36-.1.51a3,3,0,0,1-.37,1,182.28,182.28,0,0,0,82.53,1.42l-.13,0-.28,0a3,3,0,0,1-2.8-2,2.48,2.48,0,0,1-.18-.77c-.28-3-6.63-74.32,3.41-92.29a115.59,115.59,0,0,1,13.24-18.68c4.9-5.93,9.53-11.53,14.29-21.34a3.24,3.24,0,0,1,.28-.47c5.09-6.89,29.53-52.7,29.78-53.16l.12-.21C355.11,399.08,359.59,389.8,355.34,386.31ZM246.81,507.06a3,3,0,0,1,3.6,2.24A96.79,96.79,0,0,1,253,534a3,3,0,0,1-3,2.84h-.17a3,3,0,0,1-2.83-3.15,92.56,92.56,0,0,0-2.42-23A3,3,0,0,1,246.81,507.06Z" transform="translate(-76.3 -233.05)"/><path class="cls-2" d="M250.41,509.3A96.79,96.79,0,0,1,253,534a3,3,0,0,1-3,2.84h-.17a3,3,0,0,1-2.83-3.15,92.56,92.56,0,0,0-2.42-23,3,3,0,0,1,5.85-1.35Z" transform="translate(-76.3 -233.05)"/><path class="cls-2" d="M356.82,402.49c-3.28,6.6-6.79,13.08-10.47,19.47a394.69,394.69,0,0,1-22.11,34.14,5.12,5.12,0,0,1,.06,4.45,15.45,15.45,0,0,1-4,5.31,5.22,5.22,0,0,1-2,6.1c-7.79,5.63-15.28,11.47-19.38,20.43-4.2,9.19-6,20-7.17,30a154.07,154.07,0,0,0-.39,31.7c.9,10,4.57,20.28,3.73,30.36a5.26,5.26,0,0,1-2.89,4.53,2.48,2.48,0,0,1-.18-.77c-.28-3-6.63-74.32,3.41-92.29a115.59,115.59,0,0,1,13.24-18.68c4.9-5.93,9.53-11.53,14.29-21.34a3.24,3.24,0,0,1,.28-.47c5.09-6.89,29.53-52.7,29.78-53.16l.12-.21c1.91-3,6.39-12.26,2.14-15.75-3.27-2.67-7.23.25-12.56,5.84l0,.05L310.4,442a3,3,0,0,1-2.52,1.36,3,3,0,0,1-1.63-.48,3,3,0,0,1-.88-4.15l32.45-50,.07-.12,3.4-5.23a3.37,3.37,0,0,1,.34-.43c1.95-2.07,6.9-8.58,6.37-13.59a6.4,6.4,0,0,0-3-4.7c-4.89-3.4-9.15-2.22-12-.44a2.78,2.78,0,0,1-.62.41h0a15.21,15.21,0,0,0-3.17,3l-.26.3L323,373.82a46.49,46.49,0,0,1,.29,8.7c-.71,10.79-7.07,28.35-19.68,43.23-9.07,10.7-24.08,23.19-46.13,26.26a21.38,21.38,0,0,1,1.85,4.64,2.51,2.51,0,0,1-1.87,3,2.76,2.76,0,0,1-.57.06,2.5,2.5,0,0,1-2.43-1.92,16.5,16.5,0,0,0-1.42-3.5l-2.2-1.66c-1.23.06-2.47.09-3.73.09-23.82,0-41.7-8.89-54.35-19.5h0c-6.61-.38-17.64-6.36-19.21-7.22-4.52-2.25-17.57-7.5-24.33-5.22a5.15,5.15,0,0,0-3.23,2.7,6.3,6.3,0,0,0-.31,5.72c2.08,4.56,10.25,9.11,21.86,12.18,11.18,2.95,19.41,17.63,22.93,23.9.48.85,1,1.8,1.23,2.15l0,.05a39.54,39.54,0,0,0,5.28,4.89,2.72,2.72,0,0,1,.72.22,31.43,31.43,0,0,1,8.07,5.07A65.86,65.86,0,0,0,228.18,483a3,3,0,0,1-.23,6h-.24a80.21,80.21,0,0,1-14.55-2.4,105.75,105.75,0,0,1,7.31,15.44c5.82,14.54-5.33,76.56-7.06,85.92a4.92,4.92,0,0,1-.84-4.25,217.13,217.13,0,0,0,6.39-53c.06-13.83,1.43-32.64-7.28-44.51-.28-.4-.59-.79-.9-1.17a5.37,5.37,0,0,1-1.05-2,57.07,57.07,0,0,1-7.27-4.09,51.72,51.72,0,0,1-7.56-6.14,53.61,53.61,0,0,1-6.57-7.8c-4.11-5.95-7.11-12.6-12.05-18l-.09-.12a114.25,114.25,0,0,1-24.11-9.48c-6.07-3.28-12.38-10.45-7.5-17.52,3.91-5.67,11.6-4.5,17.4-3.34a73.61,73.61,0,0,1,19.1,7.08c1.27.65,2.53,1.33,3.77,2,3.74,2.09,7.38,4.35,11,6.64l3.54,2.24c3.66,2.3,7.32,4.59,11.08,6.7h0c2.3,1.29,4.63,2.52,7,3.65a56.36,56.36,0,0,0,29.85,5c.83-.08,1.67-.17,2.51-.28l.25,0c.87-.12,1.73-.25,2.6-.4s1.84-.32,2.77-.52a90.82,90.82,0,0,0,10.72-2.92,132.93,132.93,0,0,0,20-8.19c1.37-.73,2.72-1.49,4-2.3a37,37,0,0,0,8.31-7.11c.28-.77.59-1.53.94-2.28a28.47,28.47,0,0,1,8-10.36v0l0,0a5.4,5.4,0,0,1,3.41-1.2c4.79-10.14,7.7-21.28,10.25-32.25a30,30,0,0,1-.64-3.79,1.45,1.45,0,0,1-.22-.21,4.66,4.66,0,0,1-1.55-4.16,4.9,4.9,0,0,1,.13-.62,14.47,14.47,0,0,0,.5-2.76,13.18,13.18,0,0,0,0-1.66c0-.26,0-.52-.06-.77a4.82,4.82,0,0,1-.52-.11,4.28,4.28,0,0,1-3.47-3.35c-.31-1.74-.54-3.46-.72-5.18a4.74,4.74,0,0,1-.63-4.43,5.73,5.73,0,0,1,.33-.81c0-.81,0-1.63,0-2.46a5.51,5.51,0,0,1,.06-.57c-.72.2-1.45.42-2.16.61a17.56,17.56,0,0,1-1.78.42c-.48.08-1,.14-1.44.19a23.32,23.32,0,0,1-4.8.08,28.19,28.19,0,0,1-15.43-6.27l0,0a20.8,20.8,0,0,1-4.86-5.87,13.54,13.54,0,0,1-1.56-8.83,10.76,10.76,0,0,1,.95-2.87,9.29,9.29,0,0,1,2-2.64,10,10,0,0,1,6.64-2.49c8.34-.24,15.85,6.39,17.15,14.49a5.1,5.1,0,0,1-.57,3.38,3.17,3.17,0,0,1-.36.54,3.61,3.61,0,0,1-.5.61c.54,0,1.08-.13,1.62-.23.74-.14,1.47-.31,2.19-.48a25.21,25.21,0,0,1,7.43-1.13c6.8.41,13.11,5.89,13.79,12.76a12.64,12.64,0,0,1-.32,4.34,13.81,13.81,0,0,1-1.32,3.46,18.52,18.52,0,0,1,3.63-1,16.39,16.39,0,0,1,5.72-.07c10.33,1.7,10.7,11.53,6.57,19.2-.4.75-.81,1.49-1.22,2.24l-2.11,3.87a16.46,16.46,0,0,1,5.57-2.48,8.14,8.14,0,0,1,8.31,2.93C362.05,391.06,359.47,397.18,356.82,402.49Z" transform="translate(-76.3 -233.05)"/><path class="cls-2" d="M296.93,339.74a13.08,13.08,0,0,1-4-3.91,5.73,5.73,0,0,1-.82-2.16c0-.08,0-.14,0-.21,1.39-.7,4.26,1.32,5.09,2.13a8.27,8.27,0,0,1,2.33,5.07c0,.18.07.36.11.54A17,17,0,0,1,296.93,339.74Z" transform="translate(-76.3 -233.05)"/><path class="cls-3" d="M256.91,457.21l-3.85-2.92-2.2-1.66-3.5-2.66-.33-.25-4.09-3.1-7.31-5.54-4.76-3.61c9.47,1.52,15.59,5.3,19.5,9.17a27.59,27.59,0,0,1,2.35,2.62,2,2,0,0,1,.17.23,25.32,25.32,0,0,1,1.91,2.85A19.28,19.28,0,0,1,256.91,457.21Z" transform="translate(-76.3 -233.05)"/><path class="cls-4" d="M257.48,459.65a2.76,2.76,0,0,1-.57.06,2.5,2.5,0,0,1-2.43-1.92,16.5,16.5,0,0,0-1.42-3.5,19.8,19.8,0,0,0-1-1.73,23.55,23.55,0,0,0-2.17-2.87l0,0a26.73,26.73,0,0,0-3.09-3,31.35,31.35,0,0,0-11.13-5.63,43.66,43.66,0,0,0-5.15-1.14,2.5,2.5,0,1,1,.79-4.94c11.39,1.83,18.28,6.74,22.38,11.42a27.81,27.81,0,0,1,1.84,2.32c.11.15.21.31.31.46a28.46,28.46,0,0,1,1.7,2.81,21.38,21.38,0,0,1,1.85,4.64A2.51,2.51,0,0,1,257.48,459.65Z" transform="translate(-76.3 -233.05)"/><path class="cls-4" d="M299.87,349.46c-4.7,0-10.11-2.16-16.17-6.47-4.29-3.05-6.48-6.23-6.7-9.72-.21-3.25,1.37-6.47,4.71-9.56,9.64-8.92,22.06-.38,26.14,2.43a11.28,11.28,0,0,1,5.24,8.14c.67,6.21-4.19,11.62-4.74,12.22a4.19,4.19,0,0,1-.45.39A13.48,13.48,0,0,1,299.87,349.46Zm6.28-5h0Zm0,0h0Zm-14.53-18.72a8.15,8.15,0,0,0-5.83,2.38c-2,1.8-2.89,3.41-2.81,4.78.13,1.93,2.35,3.9,4.19,5.21,7.5,5.33,13.06,6.67,17,4.09,1.09-1.28,3.28-4.49,3-7.27a5.45,5.45,0,0,0-2.67-3.84C298.63,327.08,294.57,325.73,291.62,325.73Z" transform="translate(-76.3 -233.05)"/><path class="cls-5" d="M233.29,339.91c10-10,26.43-15.8,49.58-11.38s38.81,33,37.45,53.79-24.85,67.4-73.19,67.4-72.09-38.36-75.58-50c-3.42-11.47-8.17-52.77,27.92-62s44.25,13.62,44.25,13.62Z" transform="translate(-76.3 -233.05)"/><path class="cls-4" d="M320.37,378.08a4.66,4.66,0,0,1-1.55-4.16,4.9,4.9,0,0,1,.13-.62,14.47,14.47,0,0,0,.5-2.76c-.08-.45-.18-.91-.28-1.36s-.18-.79-.28-1.18a4.28,4.28,0,0,1-3.47-3.35c-.31-1.74-.54-3.46-.72-5.18a4.74,4.74,0,0,1-.63-4.43c-.55-1.09-1.14-2.17-1.75-3.23a17.56,17.56,0,0,1-1.78.42c-.48.08-1,.14-1.44.19,5.7,9.39,8.84,20.37,8.23,29.7-1.19,18.11-21.18,60.33-63.68,64.3-1.08.1-2.17.18-3.28.22s-2.15.08-3.24.08h-.37c-1.29,0-2.57,0-3.82-.09a76.85,76.85,0,0,1-47-18.46,3,3,0,0,1,.19,3.92c1.06.85,2.16,1.69,3.3,2.5,3.66,2.3,7.32,4.59,11.08,6.7h0A81.14,81.14,0,0,0,247,449.72h.1c.92,0,1.82,0,2.72-.05h.27c.87-.12,1.73-.25,2.6-.4s1.84-.32,2.77-.52a90.82,90.82,0,0,0,10.72-2.92,132.93,132.93,0,0,0,20-8.19,77.16,77.16,0,0,0,13.28-11.69,28.47,28.47,0,0,1,8-10.36v0c8-12.11,12.24-24.81,12.79-33.24A39.8,39.8,0,0,0,320.37,378.08Zm2.65-4.26a56.84,56.84,0,0,0-1.37-7.12,65.87,65.87,0,0,0-9.3-20.37c-.61-.89-1.24-1.76-1.9-2.61-.36-.48-.73-1-1.11-1.42l-.62-.75-.14-.17c-.74-.88-1.5-1.73-2.29-2.55a45,45,0,0,0-18.55-12.14c-.78-.26-1.58-.49-2.38-.69q-.94-.24-1.92-.42c-1-.2-2-.37-3.05-.52a79.5,79.5,0,0,0-9.37-.94c-2.45-.1-4.85-.08-7.18.05a60.36,60.36,0,0,0-10.75,1.6,48.31,48.31,0,0,0-14.81,6.28c-1.05.68-2.08,1.4-3.06,2.16l-.45.36c-.7.56-1.38,1.13-2,1.73l-.44-.21a34.19,34.19,0,0,0-6.92-2.41c-6.75-1.59-15.47-1.71-26.64,1.14-11.73,3-20.47,9.43-26,19.14-9.31,16.44-6.74,37.66-4.07,46.58,1.27,4.26,6,13.83,14.77,23.63.45.51.91,1,1.4,1.53a86.83,86.83,0,0,0,7.92,7.52h0c12.65,10.61,30.53,19.5,54.35,19.5,1.26,0,2.5,0,3.73-.09l1.18-.07c.93-.05,1.85-.13,2.76-.22s1.81-.2,2.7-.33c22.05-3.07,37.06-15.56,46.13-26.26,12.61-14.88,19-32.44,19.68-43.23A46.49,46.49,0,0,0,323,373.82Zm-69.37,72.6c-1.08.1-2.17.18-3.28.22s-2.15.08-3.24.08h-.37c-1.29,0-2.57,0-3.82-.09a76.85,76.85,0,0,1-47-18.46l-.48-.41,0,0c-12.82-11.13-19.46-23.93-20.94-28.89-1.94-6.49-5.08-26.67,3.54-41.9,4.67-8.24,12.15-13.72,22.24-16.29a61.79,61.79,0,0,1,15.18-2.09c7,0,12.24,1.61,16.05,3.74a3,3,0,0,0,.71.41,21,21,0,0,1,8.75,9.66,3,3,0,0,0,5.65-2,27,27,0,0,0-8.27-10.52l-.23-.18a41.06,41.06,0,0,1,17.37-8.33,61.57,61.57,0,0,1,21.8-.64c1.64.21,3.34.48,5.09.82l.12,0c.25,0,.49.09.74.15a32.31,32.31,0,0,1,9.56,3.87,41.87,41.87,0,0,1,6.77,5.06c.88.81,1.75,1.66,2.58,2.55a53.83,53.83,0,0,1,4,4.84q1.59,2.14,3,4.44c5.7,9.39,8.84,20.37,8.23,29.7C316.14,400.23,296.15,442.45,253.65,446.42Z" transform="translate(-76.3 -233.05)"/><path class="cls-3" d="M303.85,396.79l-26.1,6.89s-14.75-27.57,6.7-33.57S303.85,396.79,303.85,396.79Z" transform="translate(-76.3 -233.05)"/><path class="cls-4" d="M276.48,406.6l-.93-1.74c-.36-.66-8.54-16.18-3.73-27.44,2.05-4.8,6.07-8.08,11.95-9.72s10.65-.88,14.46,2.2c9.23,7.47,8.17,26.25,8.12,27l-.12,1.8Zm12.9-34.73a15.91,15.91,0,0,0-4.26.64c-4.41,1.24-7.26,3.49-8.7,6.88-3.06,7.15.85,17.3,2.68,21.35l22.31-5.89c0-5.68-1-16.74-6.33-21.06A8.71,8.71,0,0,0,289.38,371.87Z" transform="translate(-76.3 -233.05)"/><path class="cls-3" d="M236.7,411.21s-4-33.57-23.61-29.36-10.6,28.85-8.18,36.13C204.91,418,222.79,411.72,236.7,411.21Z" transform="translate(-76.3 -233.05)"/><path class="cls-4" d="M203.35,421.18,202.27,418c-2.1-6.24-7-20.85-1.54-30.49,2.38-4.18,6.36-6.89,11.83-8.06A16,16,0,0,1,225.73,382c10.85,7.77,13.35,28,13.46,28.9l.31,2.69-2.71.1c-13.38.49-30.87,6.57-31,6.63ZM216.41,384a13.22,13.22,0,0,0-2.8.32c-4.08.87-6.87,2.72-8.54,5.64-4,7.06-.62,18.68,1.42,24.88,5-1.59,16.72-5.06,27.31-5.93-1-5.43-4-17.8-11-22.81A10.73,10.73,0,0,0,216.41,384Z" transform="translate(-76.3 -233.05)"/><path class="cls-4" d="M216.38,389.39a26.41,26.41,0,0,0-3,12.77,19,19,0,0,0,.95,6.26,5.21,5.21,0,0,0,5.76,3.48c2.36-.28,4.72-.72,7.07-1.1,2.12-.33,4.57-.43,6.07-2.2s1.13-4.44.52-6.63a21.45,21.45,0,0,0-2.27-5.25,21.86,21.86,0,0,0-9.37-8.57c-1.54-.72-3.95.1-3.76,2.16a15.41,15.41,0,0,0,2.94,8,25.53,25.53,0,0,0,3,3.16,4.78,4.78,0,0,1,1,1.24,1.16,1.16,0,0,1,.18.54c0-.32-.07.23,0,0,0,0-.06.07-.09.1-.2.19,0,0,0,0a2,2,0,0,1-.32.18c-.28.13,0,0,0,0a2.11,2.11,0,0,1-.36.09c-.29,0,0,0,0,0-.13,0-.38,0-.08,0a2.71,2.71,0,0,1-1.91-1.52,10.12,10.12,0,0,1-1-3.59c0-.2-.11-1.51-.14-1.52l-.26.48-.87.08c-.47.26-.83.22-1.07-.13-.47-.26-.1-.22-.08,0,0-.24,0,0,0,.12.39,1.57.86,3.14,1.17,4.73a3.33,3.33,0,0,1,.07.76c0-.12,0,.49.06.1,0-.17,0,.05-.11.1.11,0,.15-.17.29-.18s.82.26.48,0a2.51,2.51,0,0,0-3.42.89,2.56,2.56,0,0,0,.89,3.42c1.91,1.48,4.8.41,6-1.45,1.34-2.07.67-4.55.12-6.76-.5-2-.78-4.76-2.79-5.86-2.72-1.5-5.48.87-5.53,3.68a19,19,0,0,0,.4,3.35,14.33,14.33,0,0,0,.91,3.19,8.36,8.36,0,0,0,4.33,4.55c4.33,1.81,9.58-2,7.87-6.8-.89-2.49-3.09-3.72-4.66-5.69a10.68,10.68,0,0,1-2.15-5.31l-3.76,2.16c5,2.33,8.95,7.06,9.72,12.44,0-.1.11.78.06.47l-.07.28.22-.38s.56-.21-.11.08c.27-.12-.47.11-.57.13-.46.1-.93.16-1.39.24l-5.57.88c-.76.12-1.6.29-2.27.34-.09,0-.81-.06-.55,0,0,0,.1.1.12.1s-.18-.34-.08-.1a13,13,0,0,1-.72-4.47,21.38,21.38,0,0,1,2.35-10.58,2.55,2.55,0,0,0-.89-3.42,2.51,2.51,0,0,0-3.42.9Z" transform="translate(-76.3 -233.05)"/><path class="cls-4" d="M215.13,417.41a2.51,2.51,0,0,1-2.36-1.65c-.69-1.92-6.58-18.95-1.2-27.27A9.87,9.87,0,0,1,219.4,384c16.54-1.29,19.66,25.76,19.79,26.91a2.5,2.5,0,0,1-2.53,2.77c-4.19-.07-15.95.39-20.11,3.26A2.53,2.53,0,0,1,215.13,417.41Zm5.3-28.42c-.21,0-.43,0-.64,0a4.83,4.83,0,0,0-4,2.19c-2.89,4.47-.86,14.41.84,20.15,5.24-2,12.91-2.53,17.16-2.63C232.63,402.73,229.07,389,220.43,389Z" transform="translate(-76.3 -233.05)"/><path class="cls-4" d="M235.59,403.39l-2.68-2.59c-.09-.09-.2-.16-.29-.24a15.79,15.79,0,0,0-1.14-3.26,28.49,28.49,0,0,0-5.23-7.2c-2.06-2.18-5.07-3.78-8.13-2.85a5.82,5.82,0,0,0-3.81,3.72,9.63,9.63,0,0,0-.5,4.64,12.37,12.37,0,0,0-.32,8.36c.86,2.92,2.26,6.41,5.24,7.7a12,12,0,0,0,9.41,0,7.38,7.38,0,0,0,1.07-.67,5.17,5.17,0,0,0,2.84.9,5.1,5.1,0,0,0,3.54-1.46,5,5,0,0,0,1.46-3.54A5.18,5.18,0,0,0,235.59,403.39Z" transform="translate(-76.3 -233.05)"/><path class="cls-4" d="M223.63,413.15a13.12,13.12,0,0,1-5.1-1c-3.25-1.4-4.7-5.24-5.51-8a12.85,12.85,0,0,1,.27-8.57,10.29,10.29,0,0,1,.55-4.75,6.33,6.33,0,0,1,4.14-4c2.81-.86,6,.26,8.63,3a28.37,28.37,0,0,1,5.32,7.34,15.93,15.93,0,0,1,1.13,3.18l.2.17,2.67,2.59a5.61,5.61,0,0,1,1.62,3.87,5.53,5.53,0,0,1-1.59,3.9,5.62,5.62,0,0,1-3.91,1.62,5.55,5.55,0,0,1-2.82-.8,6.87,6.87,0,0,1-.86.51A10.71,10.71,0,0,1,223.63,413.15Zm-3.72-25.66a5.66,5.66,0,0,0-1.64.24,5.32,5.32,0,0,0-3.49,3.41,9.16,9.16,0,0,0-.48,4.39l0,.14-.06.14a11.74,11.74,0,0,0-.29,8c.81,2.8,2.12,6.16,5,7.38a11.49,11.49,0,0,0,9,0,5.9,5.9,0,0,0,1-.63l.29-.21.29.2a4.48,4.48,0,0,0,7.06-3.65,4.68,4.68,0,0,0-1.31-3.2h0l-2.68-2.6-.13-.1-.26-.21,0-.17a14.68,14.68,0,0,0-1.1-3.16,27.67,27.67,0,0,0-5.14-7.07A8.48,8.48,0,0,0,219.91,387.49Z" transform="translate(-76.3 -233.05)"/><path class="cls-4" d="M288,403.2a2.5,2.5,0,0,1-2.23-1.37c-.85-1.68-8.2-16.66-3.85-25.47a10.74,10.74,0,0,1,8.07-5.78,11.36,11.36,0,0,1,9.92,2.48c7.3,6.47,6.55,22.12,6.44,23.88a2.53,2.53,0,0,1-2.65,2.34,2.49,2.49,0,0,1-2.34-2.65c.25-4.12-.12-15.71-4.77-19.82a6.32,6.32,0,0,0-5.68-1.31,5.72,5.72,0,0,0-4.51,3.07c-2.76,5.58,1.83,17.05,3.83,21a2.5,2.5,0,0,1-1.1,3.36A2.54,2.54,0,0,1,288,403.2Z" transform="translate(-76.3 -233.05)"/><path class="cls-4" d="M296.3,375a4.14,4.14,0,0,0-5.52-1c-2.87-.7-6.34.85-6.27,4.67,0,1-.93,2.22-1.19,3.23a13,13,0,0,0-.36,3.35,19.07,19.07,0,0,0,2,7.44c2.36,5.35,6.29,7.21,12,6C309.39,396.16,301.37,380.9,296.3,375Z" transform="translate(-76.3 -233.05)"/><path class="cls-4" d="M293.88,399.51c-4.35,0-7.44-2.2-9.42-6.66a19.5,19.5,0,0,1-2-7.64,13.12,13.12,0,0,1,.38-3.48,7.55,7.55,0,0,1,.58-1.4,4.55,4.55,0,0,0,.59-1.7,4.94,4.94,0,0,1,1.82-4.14,6,6,0,0,1,4.87-1.07,4.65,4.65,0,0,1,6,1.22h0c3.76,4.4,9,13.59,6.91,19.51-.9,2.64-3.11,4.32-6.54,5A15.79,15.79,0,0,1,293.88,399.51Zm-4.47-25.22a4.72,4.72,0,0,0-3,1,4,4,0,0,0-1.45,3.34,5.2,5.2,0,0,1-.69,2.16,6.2,6.2,0,0,0-.51,1.21,12,12,0,0,0-.35,3.22,18.55,18.55,0,0,0,1.92,7.24c2.23,5.06,5.88,6.89,11.47,5.75,3.06-.62,5-2.09,5.8-4.36,1.8-5.24-2.85-14-6.73-18.54h0a3.65,3.65,0,0,0-4.89-.9l-.17.1-.2-.05A5.28,5.28,0,0,0,289.41,374.29Z" transform="translate(-76.3 -233.05)"/><path class="cls-4" d="M260.1,432c-5.57,0-7.63-3.71-7.73-3.89l4.41-2.37c.09.13,1.32,1.87,5.33,1,3.5-.73,3.67-2.65,3.63-3.21a2.47,2.47,0,0,1,2.22-2.73,2.52,2.52,0,0,1,2.76,2.23c.26,2.38-1,7.22-7.59,8.6A15,15,0,0,1,260.1,432Z" transform="translate(-76.3 -233.05)"/><path class="cls-6" d="M282,295.83c-12.49-3.69-29.83-4.2-40.67,4a6.52,6.52,0,0,0-.55.48,5.4,5.4,0,0,0-.62.4c-2.64,2-5.8,3.24-7.9,5.86a10.3,10.3,0,0,0-2.17,4.8c-.16.88.12,2.77,0,4.08-.42.7-.82,1.42-1.21,2.19-2.52,5,3.63,10.11,7.86,6.06a9.66,9.66,0,0,0,2.63-4.33,16.69,16.69,0,0,1,5.57-5.79c3.42-2,7.68-2.25,11.53-2.81,4.09-.6,8.2-1,12.28-1.68a24.09,24.09,0,0,0,5.66-1.48c1.18-.49,3.65-2.48,5-2.17C285.62,307,288.21,297.65,282,295.83Z" transform="translate(-76.3 -233.05)"/><path class="cls-4" d="M231.37,341.39a2.57,2.57,0,0,1-.94-.18l-3.77-1.53a2.5,2.5,0,0,1-1.53-2.76,30.89,30.89,0,0,0-5.57-21.75,2.52,2.52,0,0,1,.15-3.16c3-3.39,8.1-2.49,8.66-2.38a2.51,2.51,0,0,1,1.69,1.23c.32.57,7.88,14.22,3.71,28.72a2.48,2.48,0,0,1-2.4,1.81Zm-6.2-26.86a34.77,34.77,0,0,1,4.58,11.92,40.87,40.87,0,0,0-3.48-12A5.14,5.14,0,0,0,225.17,314.53Z" transform="translate(-76.3 -233.05)"/><path class="cls-4" d="M230.67,312.44c-1.58-2.18-4.35-3.25-6.84-1.79-2.15,1.26-3.39,4.64-1.79,6.84a12.06,12.06,0,0,1,2.54,6.66,5,5,0,0,0,10,0A21.45,21.45,0,0,0,230.67,312.44Z" transform="translate(-76.3 -233.05)"/><path class="cls-4" d="M229.58,329.65a5.62,5.62,0,0,1-5.5-5.48,11.56,11.56,0,0,0-2.45-6.39,4.66,4.66,0,0,1-.7-3.74,5.94,5.94,0,0,1,2.65-3.83c2.52-1.47,5.6-.67,7.5,1.94h0a22,22,0,0,1,4,12,5.09,5.09,0,0,1-1.47,3.74A5.64,5.64,0,0,1,229.58,329.65Zm-3.36-19.17a4.19,4.19,0,0,0-2.14.6,4.88,4.88,0,0,0-2.17,3.16,3.66,3.66,0,0,0,.53,2.95,12.51,12.51,0,0,1,2.64,6.94,4.62,4.62,0,0,0,4.5,4.52,4.67,4.67,0,0,0,3.31-1.48,4.05,4.05,0,0,0,1.19-3,21,21,0,0,0-3.81-11.44A5.22,5.22,0,0,0,226.22,310.48Z" transform="translate(-76.3 -233.05)"/><path class="cls-7" d="M235.42,337.93s14-7.44,27.62-13.4S286,313,288,297.72c-5.89,1.54-9.64,3.24-25.47,7.75S233.42,316.94,235.42,337.93Z" transform="translate(-76.3 -233.05)"/><path class="cls-4" d="M235.42,340.93a3,3,0,0,1-3-2.72c-2.24-23.41,13.54-31.15,29.27-35.63,8.84-2.52,13.94-4.17,17.66-5.38,3-1,5.21-1.69,7.88-2.38a3,3,0,0,1,2.74.66,3,3,0,0,1,1,2.64c-2.26,17.14-13.44,23.35-26.73,29.16S237,340.5,236.83,340.58A3,3,0,0,1,235.42,340.93ZM284.1,302l-2.88.93c-3.77,1.22-8.92,2.89-17.87,5.44-15.18,4.33-24.82,10.15-25.12,24.74,5.22-2.67,14.54-7.34,23.61-11.31C274.6,316.2,281.42,311.65,284.1,302Z" transform="translate(-76.3 -233.05)"/><path class="cls-4" d="M229.41,322.55a3,3,0,0,1-2.84-2.08c-.06-.16-4.93-16.33,14.5-24.9,16.08-7.08,30.74-8.92,40.21-5.05,7.8,3.19,9.23,5,9.62,6.43a3,3,0,0,1-5.41,2.41c-.34-.28-1.8-1.37-6.48-3.29-7.86-3.21-21.14-1.35-35.52,5-14.15,6.24-11.54,16.47-11.2,17.62a3,3,0,0,1-2,3.74A3.11,3.11,0,0,1,229.41,322.55Zm56.16-23.11Zm-.47-.93Zm0,0h0Zm0,0Zm0,0h0Z" transform="translate(-76.3 -233.05)"/><path class="cls-4" d="M253,534a3,3,0,0,1-3,2.84h-.17a3,3,0,0,1-2.83-3.15,92.56,92.56,0,0,0-2.42-23,3,3,0,0,1,5.85-1.35A96.79,96.79,0,0,1,253,534Z" transform="translate(-76.3 -233.05)"/><path class="cls-4" d="M228.18,483a65.86,65.86,0,0,1-22.36-5.38,44.21,44.21,0,0,1-8.79-5.29,39.54,39.54,0,0,1-5.28-4.89l0-.05c-.23-.35-.75-1.3-1.23-2.15-3.52-6.27-11.75-20.95-22.93-23.9-11.61-3.07-19.78-7.62-21.86-12.18a6.3,6.3,0,0,1,.31-5.72,5.15,5.15,0,0,1,3.23-2.7c6.76-2.28,19.81,3,24.33,5.22,1.57.86,12.6,6.84,19.21,7.22h0a8.12,8.12,0,0,0,1.1,0,3,3,0,0,0,2-.89,2.05,2.05,0,0,0,.24-.26,3,3,0,0,0-.19-3.92l-.48-.41,0,0a2.9,2.9,0,0,0-1.79-.48,12.46,12.46,0,0,1-3.75-.66h0a56,56,0,0,1-6.37-2.4c-2.61-1.14-5.15-2.42-7-3.46l-.11,0c-1.88-.94-18.61-9.06-29-5.57a11.14,11.14,0,0,0-6.7,5.73,12.33,12.33,0,0,0-.39,10.87c3.72,8.16,16.08,12.92,25.79,15.49,8.72,2.3,16.08,15.43,19.22,21a20.29,20.29,0,0,0,2,3.22,48.34,48.34,0,0,0,15.21,11.28,59.93,59.93,0,0,0,9.24,3.5l1.48.41a80.21,80.21,0,0,0,14.55,2.4H228a3,3,0,0,0,.23-6Z" transform="translate(-76.3 -233.05)"/><path class="cls-4" d="M213.41,588c0,.19-.07.36-.1.51a3,3,0,0,1-.37,1q-2.81-.69-5.58-1.49a3,3,0,0,1,0-.6c3.6-19.32,12-71.9,7.49-83.11-4.09-10.2-7.49-17-12.46-21.57a25.46,25.46,0,0,0-7.12-4.64,3,3,0,0,1-1.53-4,3,3,0,0,1,3.24-1.74,2.72,2.72,0,0,1,.72.22,31.43,31.43,0,0,1,8.07,5.07,36.73,36.73,0,0,1,7.34,9,105.75,105.75,0,0,1,7.31,15.44C226.29,516.6,215.14,578.62,213.41,588Z" transform="translate(-76.3 -233.05)"/><path class="cls-4" d="M358.32,405.19c-1.58,3-24.44,45.76-30,53.57-5,10.32-10.08,16.41-14.95,22.3a110.39,110.39,0,0,0-12.62,17.79c-7.59,13.57-4.51,68.71-2.68,88.82a3,3,0,0,1-2.14,3.14h-.05l-.39.08-.13,0-.28,0a3,3,0,0,1-2.8-2,2.48,2.48,0,0,1-.18-.77c-.28-3-6.63-74.32,3.41-92.29a115.59,115.59,0,0,1,13.24-18.68c4.9-5.93,9.53-11.53,14.29-21.34a3.24,3.24,0,0,1,.28-.47c5.09-6.89,29.53-52.7,29.78-53.16l.12-.21c1.91-3,6.39-12.26,2.14-15.75-3.27-2.67-7.23.25-12.56,5.84l0,.05-.17.18a3,3,0,0,1-4.74-3.62l.07-.12a4.12,4.12,0,0,1,.33-.4l.21-.23a40.8,40.8,0,0,1,7.38-6.42,14.59,14.59,0,0,1,5.64-2.21,9.54,9.54,0,0,1,7.69,2.29C368.11,389,359.29,403.64,358.32,405.19Z" transform="translate(-76.3 -233.05)"/><path class="cls-4" d="M351.45,379.38a32.92,32.92,0,0,1-2.18,3.6,37.42,37.42,0,0,1-3.09,3.91l-3.45,5.31L310.4,442a3,3,0,0,1-2.52,1.36,3,3,0,0,1-1.63-.48,3,3,0,0,1-.88-4.15l32.45-50,.07-.12,3.4-5.23a3.37,3.37,0,0,1,.34-.43c1.95-2.07,6.9-8.58,6.37-13.59a6.4,6.4,0,0,0-3-4.7c-4.89-3.4-9.15-2.22-12-.44-.22.13-.42.27-.62.41h0a15.21,15.21,0,0,0-3.17,3l-.26.3L323,373.82l0,0a3,3,0,0,1-4.17.07.46.46,0,0,0-.07-.07,3,3,0,0,1,0-4.25l.72-.72,2.18-2.18,2.88-2.88a20.11,20.11,0,0,1,4-3.83,19.66,19.66,0,0,1,3.88-2.2,16.7,16.7,0,0,1,3.05-1c3.84-.82,8.29-.29,12.94,2.95a12.37,12.37,0,0,1,5.55,9C354.36,372.51,353.09,376.26,351.45,379.38Z" transform="translate(-76.3 -233.05)"/><path class="cls-4" d="M335.48,356.82a32.56,32.56,0,0,1-.74,3.4c-.35,1.3-.7,2.3-.89,2.8a2.91,2.91,0,0,1-.87,1.23,2.78,2.78,0,0,1-.62.41h0a2.92,2.92,0,0,1-1.3.3,3,3,0,0,1-1.05-.19,3,3,0,0,1-1.76-3.85c.11-.3.22-.61.32-.94a24.57,24.57,0,0,0,1.24-7,5.13,5.13,0,0,0-.92-3.46c-1.51-1.58-5.54-5.26-10.26-5.34a10.47,10.47,0,0,0-6.26,2.17,16.25,16.25,0,0,0-1.9,1.61,3.47,3.47,0,0,1-.37.3,3,3,0,0,1-3.85-.32l0,0a3,3,0,0,1,.05-4.24l.22-.21c.57-.55,1.16-1.05,1.75-1.52.16-.13.33-.25.5-.37a17.67,17.67,0,0,1,3.8-2.19,15,15,0,0,1,6.19-1.2c6.73.11,12,4.55,14.5,7.19C336,348.3,336.1,353,335.48,356.82Z" transform="translate(-76.3 -233.05)"/><polygon class="cls-3" points="132.94 174.66 141.49 169.91 131.75 169.91 132.94 174.66"/><polygon class="cls-3" points="205.96 162.01 214.51 157.26 204.77 157.26 205.96 162.01"/></svg>