<svg id="Layer_1" data-name="Layer 1" xmlns="http://www.w3.org/2000/svg" viewBox="0 0 483.46 483.46"><defs><style>.cls-1{fill:#fff;}.cls-2{fill:#e41321;}</style></defs><path class="cls-1" d="M262.43,160.3a.29.29,0,0,1,0-.16,4.29,4.29,0,0,0,0,.62Z"/><path class="cls-1" d="M268.17,154.56h59.5c-2.39,0-3.78.1-3.78.1H268.57a6.12,6.12,0,0,0-6.11,5.48A5.71,5.71,0,0,1,268.17,154.56Z"/><circle class="cls-2" cx="241.73" cy="241.73" r="241.73"/><path class="cls-1" d="M324.82,329H340.5A106.66,106.66,0,0,1,324.82,329Z"/><path class="cls-1" d="M396.69,277.91a53.29,53.29,0,0,1-4.13,21.63c-9.82,22.53-35.05,28.23-52.06,29.44H324.82l-.93-.09H268.57a6.13,6.13,0,0,1-6.11-5.49,4.22,4.22,0,0,1,0-.62v-162a4.29,4.29,0,0,1,0-.62,6.12,6.12,0,0,1,6.11-5.48h55.32s1.39-.1,3.78-.1c13.29,0,57.11,3.35,55.1,47.92,0,.8,0,1.58-.06,2.35-.44,14-5.08,23.55-10.69,29.94C381.59,237.59,396.87,246.89,396.69,277.91Z"/><path class="cls-1" d="M262.43,322.78a4.22,4.22,0,0,0,0,.62.27.27,0,0,1,0-.15Z"/><path class="cls-1" d="M323.89,328.89l.93.09H268.17a5.71,5.71,0,0,1-5.71-5.58,6.13,6.13,0,0,0,6.11,5.49Z"/><path class="cls-1" d="M201.24,261.29,246.1,320a5.57,5.57,0,0,1-4.43,8.95H105.44a5.74,5.74,0,0,1-5.74-5.73V160.73a6.13,6.13,0,0,1,6.13-6.13h55.32s69.37-4.61,69.37,54.47C233.42,247.05,201.24,261.29,201.24,261.29Z"/></svg>